<?xml version="1.0" standalone="no"?>
<!DOCTYPE svg PUBLIC "-//W3C//DTD SVG 20010904//EN"
 "http://www.w3.org/TR/2001/REC-SVG-20010904/DTD/svg10.dtd">
<svg version="1.0" xmlns="http://www.w3.org/2000/svg"
 width="1024.000000pt" height="1024.000000pt" viewBox="0 0 1024.000000 1024.000000"
 preserveAspectRatio="xMidYMid meet">

<g transform="translate(0.000000,1024.000000) scale(0.100000,-0.100000)"
fill="#000000" stroke="none">
<path d="M5115 8368 c-11 -6 -29 -19 -40 -29 -20 -18 -69 -19 -1175 -21
l-1155 -3 -60 -28 c-78 -36 -146 -104 -182 -181 -25 -54 -28 -72 -28 -156 1
-82 4 -102 28 -150 34 -72 107 -144 179 -178 l56 -27 1 -1875 c1 -1152 -3
-1881 -9 -1890 -8 -12 -58 -15 -322 -16 -217 0 -322 -4 -342 -13 -54 -22 -88
-54 -112 -105 -23 -48 -24 -61 -24 -258 l0 -208 -74 0 c-92 0 -136 -8 -136
-26 0 -11 20 -13 105 -7 l105 6 0 -26 0 -27 -100 0 c-60 0 -100 -4 -100 -10 0
-5 -1 -13 -2 -16 -2 -4 43 -6 99 -5 103 2 103 2 103 -22 0 -24 -2 -24 -91 -26
-96 -2 -122 -7 -116 -24 3 -10 166 -11 193 0 10 4 14 -3 14 -26 l0 -31 -100 0
c-90 0 -100 -2 -100 -18 0 -14 6 -18 28 -16 15 2 60 5 100 7 70 4 72 4 72 -19
0 -22 -4 -24 -44 -24 -86 0 -166 -12 -166 -26 0 -10 22 -12 105 -7 l105 6 0
-26 c0 -25 -3 -27 -44 -27 -92 0 -166 -12 -166 -28 0 -13 15 -14 105 -8 l105
7 0 -24 c0 -21 -6 -25 -46 -31 -26 -3 -73 -6 -105 -6 -48 0 -59 -3 -59 -16 0
-15 12 -16 106 -10 l106 7 -4 -23 c-3 -22 -8 -23 -102 -28 -70 -4 -101 -9
-104 -18 -3 -11 18 -13 102 -10 l107 3 -3 -25 c-3 -25 -4 -25 -105 -28 -83 -2
-103 -6 -103 -17 0 -12 19 -15 105 -15 l105 0 0 -25 0 -25 -105 0 c-87 0 -105
-3 -105 -15 0 -12 18 -15 104 -15 l104 0 4 -172 c4 -184 10 -209 60 -254 60
-55 45 -54 611 -55 506 -1 525 0 563 19 21 11 52 34 68 51 l30 31 30 -36 c53
-65 41 -64 608 -64 329 0 527 4 551 11 58 16 121 83 143 151 l18 58 31 -48
c157 -231 480 -307 743 -173 23 12 57 35 76 51 22 20 37 27 41 20 4 -6 25 -25
47 -41 l41 -29 170 0 c153 0 175 2 214 21 24 11 52 32 63 47 l21 26 15 -23 c9
-12 34 -33 56 -47 l40 -25 321 1 c305 1 324 2 365 21 24 12 53 34 64 50 l22
29 29 -35 c53 -64 69 -68 284 -66 143 2 193 -1 193 -10 0 -8 4 -8 13 -1 9 8
132 11 376 12 391 0 395 1 459 55 52 44 75 98 80 192 l4 82 30 -6 c26 -5 29
-3 26 13 -3 14 -11 18 -31 17 -22 -1 -27 2 -27 23 0 24 2 24 86 24 64 0 85 3
82 13 -3 7 -25 13 -54 15 -89 4 -114 11 -114 32 0 19 8 20 126 20 96 0 125 3
122 13 -3 8 -40 13 -126 15 -119 3 -122 3 -122 25 0 22 3 22 75 19 97 -5 165
5 165 24 0 11 -22 14 -120 14 -113 0 -120 1 -120 20 0 19 7 20 120 20 100 0
120 3 120 15 0 12 -18 15 -92 17 -51 1 -104 2 -118 3 -18 0 -26 7 -28 24 l-4
23 121 -4 c86 -2 121 0 121 8 0 19 -27 24 -136 24 -97 0 -104 1 -104 20 0 19
7 20 125 20 104 0 125 2 125 15 0 13 -21 15 -125 15 l-125 0 0 26 c0 25 1 26
50 19 75 -10 190 3 190 22 0 13 -18 15 -117 12 l-118 -4 -3 28 -3 27 120 0
c101 0 121 2 121 15 0 8 -3 14 -7 14 -5 -1 -59 -1 -120 0 -111 1 -113 1 -113
24 0 23 0 23 111 19 69 -3 114 -1 121 6 7 7 -21 12 -89 17 -54 3 -107 7 -118
8 -12 1 -21 11 -23 23 -3 21 -1 21 117 16 79 -3 121 -1 121 5 0 15 -36 23
-111 23 -94 0 -129 8 -129 31 0 18 7 18 120 12 105 -5 120 -4 120 10 0 13 -21
16 -120 22 -108 7 -120 9 -120 26 0 18 9 19 120 19 96 0 120 3 120 14 0 11
-24 14 -117 15 -111 2 -132 7 -133 34 0 4 56 7 125 7 104 0 125 2 125 15 0 13
-20 15 -120 15 l-120 0 0 133 c0 196 -30 271 -128 319 -46 22 -55 23 -397 25
-220 1 -368 -2 -399 -9 -60 -13 -132 -78 -142 -127 l-7 -32 -19 43 c-24 54
-43 75 -93 101 -35 19 -60 21 -210 23 -97 2 -184 -2 -203 -8 -46 -14 -50 -4
-11 29 59 47 146 145 168 187 20 40 20 41 1 48 -29 11 -29 88 0 88 12 0 26
-12 35 -31 18 -34 40 -34 39 0 0 14 4 20 12 17 7 -3 18 2 24 10 7 8 9 14 5 14
-4 0 3 8 15 18 20 16 21 20 7 25 -12 4 -14 2 -10 -10 4 -11 2 -14 -5 -9 -7 4
-13 2 -13 -3 -1 -6 -2 -16 -3 -23 0 -7 -17 -12 -41 -12 -33 0 -41 3 -43 21 -3
20 -28 30 -82 35 -8 0 -21 6 -29 12 -9 7 -12 7 -9 1 4 -6 -2 -16 -13 -23 -12
-8 -19 -9 -19 -1 0 5 -4 7 -10 4 -6 -4 -7 6 -3 26 4 23 3 30 -5 25 -8 -5 -12
2 -12 21 -1 25 -2 26 -12 9 -8 -14 -8 -24 0 -37 9 -15 9 -17 -2 -13 -17 6 -28
66 -14 75 5 3 9 9 9 13 -3 22 2 28 9 11 6 -15 8 -11 7 17 -2 31 -7 40 -29 49
-15 6 -29 9 -30 8 -2 -2 -22 10 -44 27 -39 32 -39 32 -63 13 -13 -10 -20 -19
-16 -19 5 0 -2 -9 -15 -20 -13 -12 -30 -18 -37 -15 -9 3 -11 0 -7 -7 5 -8 2
-9 -10 -5 -10 4 -15 3 -11 -3 3 -6 1 -10 -5 -10 -15 0 -2 -42 18 -56 8 -6 12
-16 8 -22 -5 -8 -1 -10 10 -5 12 4 15 3 10 -5 -4 -6 -2 -29 4 -51 10 -39 11
-40 47 -34 23 4 34 3 30 -4 -4 -7 10 -7 44 -1 28 5 54 7 57 4 3 -3 -4 -6 -16
-6 -25 0 -30 -17 -7 -22 10 -2 12 -7 5 -18 -6 -9 -28 -15 -67 -16 -76 -2 -81
-3 -65 -13 11 -7 11 -9 -2 -14 -8 -3 -19 0 -23 8 -7 12 -15 12 -45 3 -37 -11
-54 -38 -35 -57 7 -7 3 -8 -12 -4 -11 3 -21 10 -21 15 0 6 -7 8 -15 4 -20 -7
-44 3 -41 17 1 7 1 9 -1 5 -6 -10 -33 -11 -33 -2 0 4 8 13 18 20 9 7 12 14 6
14 -6 0 -17 -7 -24 -15 -7 -8 -20 -15 -29 -16 -9 0 0 -5 19 -11 30 -9 32 -11
15 -18 -11 -4 -24 -5 -29 -2 -5 3 -7 1 -4 -4 3 -5 0 -14 -6 -20 -10 -9 -17 -4
-32 18 -12 18 -25 27 -36 24 -11 -2 -20 3 -23 15 -6 16 -16 19 -79 19 -53 0
-77 -4 -86 -15 -9 -10 -9 -15 -1 -15 6 0 11 -7 11 -15 0 -16 -68 -33 -79 -19
-11 16 -58 15 -75 -2 -14 -13 -28 -15 -83 -9 -68 7 -93 20 -85 44 8 23 -80 2
-98 -23 -8 -11 -15 -25 -16 -31 0 -5 -4 -19 -8 -30 -5 -11 -10 -27 -13 -35 -4
-13 -7 -12 -18 3 -10 15 -17 16 -34 8 -12 -6 -30 -16 -41 -21 -14 -7 -27 -7
-40 0 -27 15 -25 21 3 11 17 -7 24 -6 24 4 0 8 -7 11 -16 7 -9 -3 -4 5 11 17
15 12 30 30 33 41 4 11 10 18 15 15 5 -3 9 3 9 12 1 10 4 37 7 61 4 31 -1 65
-19 125 -43 140 -43 139 -1 162 63 34 89 116 63 196 -7 19 -43 99 -81 179
l-69 145 12 57 c7 33 9 79 5 112 -7 54 -7 55 38 111 54 66 78 110 100 187 54
187 24 303 -164 633 -51 89 -71 136 -80 184 -10 58 -10 65 8 85 44 48 54 107
28 157 -11 22 -11 29 0 44 18 24 18 92 1 125 -10 20 -11 30 0 50 17 33 16 79
-2 113 -13 26 -13 31 0 50 19 27 19 84 1 117 -12 21 -12 29 0 52 8 15 14 39
14 54 0 35 -34 90 -71 111 l-29 17 0 193 0 193 388 0 387 0 -3 -356 c-3 -310
-1 -359 13 -380 18 -28 37 -30 59 -8 14 13 16 62 16 380 l0 364 280 0 280 0 0
-200 c0 -144 -3 -200 -11 -200 -25 0 -98 -71 -109 -106 -14 -43 -7 -114 16
-152 22 -38 77 -71 127 -78 32 -4 53 0 86 18 68 35 86 66 86 147 0 59 -4 72
-28 104 -15 20 -41 44 -58 52 l-29 16 0 199 0 200 230 0 230 0 0 -279 0 -279
-40 -40 c-36 -36 -40 -45 -40 -89 0 -107 91 -157 192 -106 36 17 58 61 58 114
0 37 -6 48 -45 85 l-44 43 -3 274 -3 274 59 11 c83 16 158 57 216 118 76 80
94 128 95 249 0 87 -3 107 -26 155 -34 72 -106 145 -177 178 l-57 27 -1092 0
c-601 0 -1093 3 -1093 7 0 4 -17 19 -37 33 -41 27 -102 33 -138 13z m87 -106
c6 -22 -33 -134 -48 -139 -26 -9 -33 100 -8 135 18 27 50 29 56 4z m-2144
-169 c-3 -43 -5 -47 -38 -58 -31 -10 -35 -16 -35 -46 0 -31 3 -35 38 -43 36
-9 37 -11 37 -57 l0 -47 -45 -7 c-84 -12 -267 -3 -288 14 -61 52 -63 165 -4
230 44 47 92 61 220 61 l118 0 -3 -47z m282 35 c0 -5 0 -72 0 -151 l0 -143
-67 1 c-38 0 -80 -2 -95 -6 l-28 -8 0 160 0 160 95 -3 c52 -2 95 -6 95 -10z
m1700 -31 l0 -43 -190 4 c-104 3 -205 1 -225 -2 -30 -6 -35 -11 -35 -35 0 -17
7 -31 16 -35 9 -3 110 -6 225 -6 l209 0 0 -70 0 -70 -765 0 -765 1 0 49 0 50
304 0 304 0 6 25 c4 14 4 30 1 35 -4 6 -130 10 -316 10 l-309 0 0 65 0 65 770
0 770 0 0 -43z m2343 30 c49 -21 93 -109 88 -179 -1 -13 -10 -18 -31 -18 -24
0 -31 -5 -35 -27 -14 -63 74 -58 -1042 -60 l-1021 -2 -6 37 c-3 20 -6 88 -6
150 l0 112 1010 0 c825 0 1017 -2 1043 -13z m-2178 -99 c-10 -66 -27 -117 -42
-130 -20 -16 -28 -2 -28 50 0 36 7 56 29 85 37 49 49 47 41 -5z m-9 -270 c-19
-86 -28 -103 -50 -95 -11 5 -16 19 -16 52 0 38 6 51 36 85 20 22 39 38 42 36
2 -3 -3 -38 -12 -78z m-2122 -94 c3 -9 6 -189 6 -400 0 -247 4 -392 10 -405
12 -21 40 -25 58 -7 9 9 12 115 12 415 l0 403 60 0 60 0 -3 -1082 c-2 -825 -6
-1088 -15 -1105 -17 -31 -17 -419 1 -430 9 -6 11 -125 6 -563 -3 -305 -8 -564
-10 -576 -2 -11 -12 -28 -22 -38 -14 -15 -20 -16 -33 -5 -8 7 -13 18 -10 26 3
8 1 11 -4 8 -6 -3 -10 -15 -10 -26 0 -11 5 -17 10 -14 6 3 10 2 10 -3 0 -6 -6
-12 -14 -15 -19 -8 -26 75 -26 313 0 161 -3 200 -15 210 -20 16 -52 4 -59 -23
-3 -13 -6 -136 -6 -275 l-1 -251 -33 -20 c-47 -29 -65 -52 -92 -118 l-24 -58
0 60 c-1 49 -1 1747 0 3598 l0 397 69 0 c54 0 70 -4 75 -16z m1189 -16 c-16
-18 -98 -100 -181 -182 -107 -106 -152 -156 -152 -172 0 -26 24 -44 51 -37 11
3 19 0 19 -6 0 -6 -12 -11 -27 -12 -24 0 -25 -1 -8 -8 19 -8 19 -8 -2 -15 -13
-4 -23 -11 -23 -15 0 -5 -13 -24 -30 -42 -16 -19 -30 -37 -30 -42 0 -11 -80
-95 -113 -119 l-28 -20 -15 21 c-8 11 -23 21 -32 21 -9 0 -52 -32 -94 -71
l-78 -71 0 90 0 89 306 312 306 311 80 0 80 0 -29 -32z m115 -20 c-18 -18 -35
-32 -37 -30 -7 4 51 62 62 62 5 0 -6 -15 -25 -32z m825 -70 c-7 -63 -21 -103
-43 -123 -20 -18 -20 -17 -20 45 0 56 3 68 27 92 15 15 30 28 34 28 4 0 5 -19
2 -42z m-1552 -98 c-66 -66 -122 -120 -125 -120 -3 0 -6 54 -6 120 l0 120 125
0 126 0 -120 -120z m1389 -78 l0 -199 -25 -23 c-39 -36 -50 -88 -31 -134 15
-35 15 -42 -1 -86 -16 -45 -16 -50 1 -87 16 -35 16 -41 2 -68 -20 -38 -20 -68
0 -107 15 -29 15 -34 0 -59 -20 -34 -20 -60 -2 -104 13 -30 13 -38 1 -62 -25
-48 -17 -91 26 -138 16 -19 17 -25 4 -87 -11 -51 -38 -110 -115 -246 -123
-219 -160 -320 -160 -434 0 -122 50 -257 129 -348 23 -26 29 -40 23 -55 -10
-29 -7 -167 5 -189 8 -14 -6 -49 -68 -174 -91 -184 -104 -226 -89 -280 11 -44
76 -109 102 -104 15 3 15 -2 -2 -59 -11 -35 -22 -70 -26 -78 -4 -9 -9 -27 -11
-41 -2 -13 -8 -29 -13 -35 -19 -23 14 -127 53 -166 7 -8 15 -18 18 -24 2 -5
10 -9 16 -9 7 1 11 -2 8 -6 -5 -9 69 -20 132 -20 48 0 74 10 112 44 13 11 21
16 18 10 -4 -8 8 -10 39 -8 28 3 43 0 39 -6 -3 -6 2 -10 12 -10 10 -1 29 -8
43 -16 24 -15 21 -15 -27 0 -18 6 -23 3 -23 -10 0 -14 -2 -14 -16 -3 -14 11
-16 10 -12 -11 3 -23 -1 -25 -55 -32 -58 -7 -103 -18 -141 -34 -14 -5 -17 -4
-12 4 5 8 0 12 -14 12 -12 0 -19 4 -16 9 4 5 -4 7 -15 4 -20 -6 -20 -7 -5 -18
18 -13 22 -35 6 -35 -5 0 -10 7 -10 15 0 9 -9 15 -21 15 -17 0 -19 3 -10 14 9
11 5 15 -19 19 -21 5 -30 12 -30 26 0 10 -7 24 -15 31 -8 7 -13 16 -10 20 3 4
-4 19 -15 31 l-19 24 3 -32 c2 -21 -2 -34 -11 -37 -20 -8 -33 -7 -32 2 4 24
-3 42 -17 42 -11 0 -14 -5 -10 -16 4 -10 2 -14 -6 -10 -7 3 -21 9 -30 12 -10
3 -20 15 -24 27 -6 20 -13 30 -42 62 -7 8 -8 16 -3 20 21 12 -2 35 -35 35 -24
0 -34 5 -34 15 0 11 -11 15 -36 15 -28 0 -37 5 -41 21 -3 11 -9 17 -12 12 -3
-5 -17 -14 -31 -20 l-25 -12 30 3 c17 2 23 1 15 -2 -12 -4 -11 -7 5 -13 17 -8
15 -9 -8 -6 -21 3 -25 1 -17 -8 6 -7 8 -20 4 -28 -7 -20 -69 -21 -101 -1 -15
9 -23 10 -25 2 -3 -7 -55 -11 -158 -12 -145 -1 -155 -2 -162 -21 -5 -13 -6 -8
-3 13 3 24 0 34 -11 39 -13 5 -13 7 -2 14 10 7 9 9 -4 9 -9 0 -20 -4 -23 -10
-3 -5 -12 -10 -18 -10 -7 0 3 10 21 21 36 24 40 31 15 28 -34 -3 -45 1 -40 15
7 17 -30 50 -39 35 -4 -8 -9 -7 -15 2 -4 7 -11 10 -15 6 -10 -10 2 -19 28 -22
38 -4 39 -5 33 -15 -4 -6 -1 -17 5 -25 9 -11 9 -15 1 -15 -6 0 -11 -7 -11 -15
0 -24 -38 -18 -42 7 -3 21 -9 22 -97 24 -52 1 -97 7 -100 12 -3 5 -15 12 -26
15 -11 2 20 5 68 6 l88 1 -23 41 c-15 28 -24 36 -26 25 -3 -11 -16 -17 -45
-18 -44 -2 -84 -4 -104 -7 -14 -1 -18 -37 -5 -44 4 -2 1 -2 -5 -1 -9 2 -14
-11 -15 -39 l-1 -42 -4 43 c-2 23 -8 42 -14 42 -5 0 -9 15 -10 33 0 26 -2 28
-8 12 -18 -43 -21 109 -26 1082 l-5 1002 608 605 607 606 153 0 152 0 0 -198z
m161 -68 c-6 -58 -31 -114 -51 -114 -6 0 -10 26 -10 57 0 51 4 61 32 90 17 18
32 32 33 30 1 -1 -1 -29 -4 -63z m50 -204 c14 0 34 -6 44 -14 16 -12 13 -13
-31 -9 -39 4 -54 1 -68 -12 -14 -14 -15 -20 -4 -26 19 -13 -79 -11 -103 1 -54
30 17 75 101 65 19 -3 47 -5 61 -5z m1564 -30 c3 -5 1 -10 -5 -10 -6 0 -9 -4
-5 -9 3 -6 -10 -22 -30 -38 -19 -15 -35 -35 -35 -43 0 -13 -1 -13 -10 0 -16
25 -11 62 12 87 22 24 62 31 73 13z m-1519 -145 c17 -13 14 -14 -37 -15 -36 0
-61 -5 -68 -14 -9 -11 -9 -15 1 -19 7 -3 -17 -6 -54 -6 -66 -1 -68 0 -68 24 0
34 26 44 126 44 56 1 86 -3 100 -14z m-40 -155 c27 0 44 -5 47 -14 5 -11 -1
-14 -26 -10 -38 6 -89 -7 -94 -23 -3 -7 8 -13 24 -16 15 -2 -7 -5 -50 -6 -64
-1 -79 2 -84 15 -15 39 37 67 107 58 19 -2 54 -4 76 -4z m39 -170 c23 -10 14
-13 -35 -10 -19 0 -44 -6 -55 -14 -20 -16 -20 -16 -1 -31 18 -14 15 -15 -41
-15 -34 0 -68 3 -77 6 -25 9 -20 53 7 64 28 11 175 11 202 0z m-5 -170 c20 -6
13 -9 -38 -15 -56 -7 -63 -10 -60 -29 3 -19 -3 -21 -45 -24 -69 -4 -98 25 -61
62 12 12 35 16 97 15 45 -1 93 -4 107 -9z m-160 -252 c0 -72 0 -72 -20 -53
-19 20 -19 22 -3 73 9 28 18 52 20 52 2 0 3 -32 3 -72z m137 22 c14 -42 16
-109 4 -129 -21 -32 -67 93 -54 147 8 33 36 23 50 -18z m-180 -160 c9 -14 9
-21 2 -26 -6 -4 -23 -33 -38 -65 l-26 -58 -24 18 -24 18 39 66 c22 37 44 67
49 67 6 0 16 -9 22 -20z m266 -27 c2 -16 10 -42 17 -59 8 -17 10 -42 6 -58 -6
-24 -9 -26 -22 -15 -17 14 -54 82 -54 99 0 13 32 59 41 60 4 0 9 -12 12 -27z
m-116 -125 c51 -83 128 -243 142 -294 18 -67 -2 -132 -59 -197 l-29 -34 -101
2 c-116 3 -125 8 -166 92 -34 69 -30 125 18 226 34 71 146 267 152 267 2 0 21
-28 43 -62z m-272 -62 c15 -22 15 -27 1 -53 -17 -32 -22 -23 -5 10 10 21 9 21
-10 -1 -11 -13 -23 -39 -27 -58 -7 -36 -24 -44 -44 -20 -9 12 -5 28 20 80 17
37 35 66 40 66 5 0 17 -11 25 -24z m485 6 c0 -10 6 -27 14 -37 8 -11 11 -26 8
-34 -3 -9 -1 -12 6 -7 19 11 14 -16 -8 -44 -23 -29 -29 -24 -56 47 -15 39 -15
43 2 67 22 30 34 33 34 8z m79 -304 c0 -43 -2 -78 -6 -78 -5 0 -16 7 -25 14
-14 10 -18 28 -18 76 0 41 6 72 18 92 l17 29 6 -28 c4 -15 7 -63 8 -105z
m-650 78 c15 -18 3 -132 -16 -147 -19 -16 -25 -7 -30 45 -10 87 14 141 46 102z
m56 -226 c-3 -5 0 -28 6 -50 17 -58 -2 -76 -30 -29 -25 41 -26 67 -5 98 15 21
18 21 26 7 5 -9 6 -21 3 -26z m540 0 c4 -14 -4 -32 -26 -60 -57 -71 -91 -41
-39 34 33 49 55 58 65 26z m-509 -31 c11 -23 13 -34 5 -42 -8 -8 -11 -5 -11
10 0 12 -4 25 -10 28 -10 6 -14 35 -5 35 2 0 12 -14 21 -31z m300 -98 c25 -15
34 -32 52 -92 37 -124 27 -176 -42 -237 -41 -35 -82 -46 -154 -39 -114 11
-174 116 -138 240 17 58 61 107 120 133 46 20 125 17 162 -5z m-267 -454 c8
-10 -4 -47 -51 -153 -33 -76 -62 -141 -64 -143 -6 -7 -44 31 -44 43 0 22 124
266 136 266 6 0 17 -6 23 -13z m385 -22 c-9 -14 -20 -23 -24 -20 -4 2 -13 -6
-20 -19 -9 -17 -20 -23 -37 -21 -21 2 -24 -1 -18 -19 3 -11 19 -77 35 -146 16
-69 43 -179 59 -245 17 -66 31 -128 31 -137 0 -25 -54 -59 -87 -55 -35 5 -36
9 -77 256 -21 130 -39 206 -47 212 -26 16 -46 -27 -83 -183 -61 -256 -78 -288
-152 -288 -58 0 -68 19 -49 91 39 142 135 534 135 550 0 23 4 23 64 3 60 -21
153 -12 222 21 63 30 68 30 48 0z m30 -13 c3 -5 -1 -9 -9 -9 -8 0 -12 4 -9 9
3 4 7 8 9 8 2 0 6 -4 9 -8z m89 -184 c6 -22 5 -22 -8 -4 -17 22 -20 40 -6 32
5 -3 11 -16 14 -28z m-11 -47 c-3 -9 -1 -12 6 -7 18 11 14 0 -5 -15 -11 -10
-14 -10 -9 -1 4 6 3 12 -2 12 -6 0 -12 6 -15 13 -3 7 3 13 13 13 11 0 16 -5
12 -15z m-1955 -363 c-2 -13 -4 -3 -4 22 0 25 2 35 4 23 2 -13 2 -33 0 -45z
m3240 26 c-7 -7 -37 7 -37 17 0 6 9 5 21 -1 11 -7 19 -14 16 -16z m-100 0 c-3
-3 -12 -4 -19 -1 -8 3 -5 6 6 6 11 1 17 -2 13 -5z m83 -33 c0 -6 -4 -13 -10
-16 -5 -3 -10 1 -10 9 0 9 5 16 10 16 6 0 10 -4 10 -9z m40 5 c0 -3 -4 -8 -10
-11 -5 -3 -10 -1 -10 4 0 6 5 11 10 11 6 0 10 -2 10 -4z m66 -27 c3 -6 1 -16
-6 -22 -9 -9 -14 -8 -24 5 -10 13 -15 15 -24 6 -9 -9 -12 -8 -12 5 0 12 8 17
29 17 17 0 33 -5 37 -11z m138 -15 c10 -25 -1 -29 -14 -5 -6 12 -7 21 -1 21 5
0 12 -7 15 -16z m-134 -44 c12 -8 11 -10 -7 -10 -13 0 -23 5 -23 10 0 13 11
13 30 0z m-2790 -26 c0 -12 -10 -14 -52 -12 -74 4 -77 28 -4 28 44 0 56 -3 56
-16z m264 1 c-4 -8 -8 -15 -10 -15 -2 0 -4 7 -4 15 0 8 4 15 10 15 5 0 7 -7 4
-15z m1846 11 c0 -2 -7 -9 -15 -16 -12 -10 -15 -10 -15 4 0 9 7 16 15 16 8 0
15 -2 15 -4z m345 -7 c-18 -5 -33 -5 -39 1 -7 7 4 10 30 9 39 -1 39 -1 9 -10z
m213 -1 c-6 -18 -28 -21 -28 -4 0 9 7 16 16 16 9 0 14 -5 12 -12z m-2488 -34
c0 -37 -19 -51 -63 -46 -52 6 -50 32 3 32 33 0 40 3 40 20 0 11 5 20 10 20 6
0 10 -12 10 -26z m916 -11 c-6 -14 -9 -15 -16 -4 -11 19 -1 46 13 32 5 -5 7
-18 3 -28z m581 5 c-3 -7 -5 -2 -5 12 0 14 2 19 5 13 2 -7 2 -19 0 -25z m1164
-5 c-8 -15 -10 -15 -11 -2 0 17 10 32 18 25 2 -3 -1 -13 -7 -23z m-3350 -84
c15 -15 28 -31 30 -36 9 -20 81 -73 91 -67 7 4 8 2 4 -5 -4 -6 -13 -8 -19 -5
-7 4 -8 3 -4 -2 5 -5 13 -9 18 -9 20 0 8 -18 -29 -45 -22 -16 -49 -48 -62 -76
-21 -44 -25 -46 -28 -24 -2 13 -13 47 -24 75 -24 61 -38 274 -16 241 7 -10 25
-31 39 -47z m772 40 c-5 -19 -3 -21 20 -15 29 7 35 -2 15 -22 -9 -9 -8 -12 4
-12 9 0 18 3 21 8 2 4 2 2 1 -5 -2 -7 6 -15 17 -18 21 -7 25 -20 8 -30 -6 -4
-8 -13 -5 -21 3 -8 0 -14 -7 -15 -9 0 -9 -2 1 -6 6 -2 12 -9 12 -14 0 -4 -7
-6 -15 -3 -8 4 -15 14 -15 24 0 10 -6 20 -12 23 -10 3 -10 9 -1 25 10 17 9 20
-15 25 -27 6 -52 42 -44 65 7 21 20 13 15 -9z m344 15 c-3 -3 -12 -4 -19 -1
-8 3 -5 6 6 6 11 1 17 -2 13 -5z m1136 -1 c-13 -2 -33 -2 -45 0 -13 2 -3 4 22
4 25 0 35 -2 23 -4z m-108 -13 c13 -6 15 -9 5 -9 -8 0 -22 4 -30 9 -18 12 -2
12 25 0z m1140 0 c-3 -5 -10 -10 -16 -10 -5 0 -9 5 -9 10 0 6 7 10 16 10 8 0
12 -4 9 -10z m-3273 -22 c-7 -7 -12 -8 -12 -2 0 6 3 14 7 17 3 4 9 5 12 2 2
-3 -1 -11 -7 -17z m1083 12 c3 -5 -1 -10 -9 -10 -9 0 -16 5 -16 10 0 6 4 10 9
10 6 0 13 -4 16 -10z m55 0 c0 -5 -9 -10 -21 -10 -11 0 -17 5 -14 10 3 6 13
10 21 10 8 0 14 -4 14 -10z m1830 6 c0 -3 -4 -8 -10 -11 -5 -3 -10 -1 -10 4 0
6 5 11 10 11 6 0 10 -2 10 -4z m-1703 -21 c3 -9 2 -19 -1 -23 -8 -8 -38 10
-44 26 -6 18 38 14 45 -3z m618 -5 c-3 -5 -20 -6 -38 -4 -17 3 -43 1 -57 -5
-18 -7 -20 -10 -7 -10 15 -1 15 -4 5 -21 -17 -26 -38 -26 -31 1 5 18 2 19 -23
14 -23 -4 -25 -3 -9 4 17 8 15 10 -14 10 -59 2 -29 9 64 16 50 4 92 9 94 11 7
7 21 -7 16 -16z m1405 0 c-8 -5 -17 -7 -19 -4 -3 3 1 9 9 14 8 5 17 7 19 4 3
-3 -1 -9 -9 -14z m-3250 0 c0 -5 -5 -10 -11 -10 -5 0 -7 -6 -3 -12 5 -10 4
-10 -6 -1 -7 6 -9 16 -6 22 9 14 26 14 26 1z m2125 -10 c-3 -5 -11 -10 -16
-10 -6 0 -7 5 -4 10 3 6 11 10 16 10 6 0 7 -4 4 -10z m-1025 -11 c0 -7 17 -10
45 -7 25 2 45 -1 45 -5 0 -5 16 -6 35 -3 26 4 35 2 35 -8 0 -8 3 -23 6 -33 4
-13 3 -14 -4 -5 -5 7 -25 14 -45 15 -22 1 -37 7 -37 15 0 7 -14 12 -34 12 -19
0 -41 3 -50 6 -18 7 -22 24 -6 24 6 0 10 -5 10 -11z m729 -1 c10 -10 15 -10
18 -2 3 9 10 9 28 0 38 -17 30 -27 -17 -24 -24 2 -42 8 -40 13 2 6 -7 13 -20
17 -21 5 -21 6 -2 7 11 1 26 -5 33 -11z m-202 -4 c-3 -3 -12 -4 -19 -1 -8 3
-5 6 6 6 11 1 17 -2 13 -5z m173 -8 c0 -2 -7 -6 -15 -10 -8 -3 -15 -1 -15 4 0
6 7 10 15 10 8 0 15 -2 15 -4z m325 -6 c4 -6 -8 -10 -29 -10 -20 0 -36 5 -36
10 0 6 13 10 29 10 17 0 33 -4 36 -10z m-605 -8 c-23 -4 -24 -5 -5 -13 13 -5
5 -7 -25 -4 -40 4 -41 4 -12 -4 49 -13 53 -25 7 -18 -22 4 -51 7 -64 7 -13 0
-21 3 -18 7 10 9 98 32 122 31 14 -1 13 -2 -5 -6z m-553 -17 c8 -9 13 -19 10
-22 -6 -5 -37 21 -37 31 0 10 11 6 27 -9z m133 5 c0 -5 -9 -10 -20 -10 -11 0
-20 5 -20 10 0 6 9 10 20 10 11 0 20 -4 20 -10z m-90 -10 c0 -5 -2 -10 -4 -10
-3 0 -8 5 -11 10 -3 6 -1 10 4 10 6 0 11 -4 11 -10z m27 -32 c-20 -13 -24 -9
-19 17 4 24 5 24 17 8 10 -13 10 -20 2 -25z m-126 19 c-7 -7 -14 -8 -21 -1 -6
6 -2 10 12 11 16 2 18 -1 9 -10z m476 -3 c-3 -3 -12 -4 -19 -1 -8 3 -5 6 6 6
11 1 17 -2 13 -5z m230 0 c-3 -3 -12 -4 -19 -1 -8 3 -5 6 6 6 11 1 17 -2 13
-5z m-622 -14 c-3 -5 -12 -10 -18 -10 -7 0 -6 4 3 10 19 12 23 12 15 0z m-718
-6 c-3 -3 -12 -4 -19 -1 -8 3 -5 6 6 6 11 1 17 -2 13 -5z m579 -19 c-1 -28
-14 -33 -23 -9 -4 12 9 32 23 34 1 0 1 -11 0 -25z m104 11 c0 -2 -7 -6 -15
-10 -8 -3 -15 -1 -15 4 0 6 7 10 15 10 8 0 15 -2 15 -4z m1075 -6 c7 -12 -12
-12 -40 0 -18 8 -17 9 7 9 15 1 30 -3 33 -9z m-88 -6 c-3 -3 -12 -4 -19 -1 -8
3 -5 6 6 6 11 1 17 -2 13 -5z m-1022 -14 c3 -5 1 -10 -4 -10 -6 0 -11 5 -11
10 0 6 2 10 4 10 3 0 8 -4 11 -10z m-30 -20 c3 -6 -1 -7 -9 -4 -18 7 -21 14
-7 14 6 0 13 -4 16 -10z m1030 0 c-3 -5 -11 -10 -16 -10 -6 0 -7 5 -4 10 3 6
11 10 16 10 6 0 7 -4 4 -10z m-830 -66 c-15 -14 -29 -23 -32 -21 -4 5 45 47
55 47 3 0 -7 -11 -23 -26z m786 -11 c-12 -20 -14 -14 -5 12 4 9 9 14 11 11 3
-2 0 -13 -6 -23z m1133 -48 c-6 -23 -8 -25 -16 -11 -6 11 -6 22 3 32 16 20 21
12 13 -21z m-1970 3 c-10 -13 -20 -25 -22 -28 -2 -3 -2 4 0 15 2 17 18 31 37
34 2 1 -4 -9 -15 -21z m-43 -57 c-7 -5 -12 -11 -11 -15 1 -4 -1 -12 -4 -19 -2
-6 -4 -3 -3 8 3 26 17 48 25 40 4 -3 1 -10 -7 -14z m611 -19 c58 -26 105 -67
129 -113 l19 -39 -52 40 c-40 30 -72 44 -126 56 -152 34 -286 -19 -343 -133
-24 -48 -24 -50 -29 -478 l-5 -430 -27 -3 c-22 -3 -29 2 -33 20 -3 13 -5 212
-3 443 l3 420 28 57 c38 77 112 142 191 168 75 25 182 21 248 -8z m-2926 -23
c4 -7 6 -139 5 -295 l-2 -284 115 0 116 0 0 279 c0 278 0 280 22 295 28 20
102 21 121 2 9 -9 12 -26 9 -43 -10 -53 -7 -408 3 -415 6 -5 5 -8 -3 -8 -8 0
-10 -5 -6 -12 5 -7 7 -188 6 -401 -2 -316 -5 -394 -17 -416 -8 -15 -15 -20
-15 -11 -1 9 -5 7 -10 -7 -7 -16 -17 -21 -39 -21 -17 1 -28 5 -25 9 3 5 -1 6
-9 4 -30 -12 -37 38 -40 270 l-2 230 -38 9 c-29 8 -40 7 -46 -3 -6 -9 -11 -10
-15 -2 -8 12 -47 14 -95 5 l-31 -6 0 -224 c0 -189 -2 -225 -16 -238 -17 -18
-71 -21 -94 -6 -9 6 -17 5 -22 -3 -7 -11 -10 306 -10 918 0 380 -1 350 18 369
18 19 109 22 120 5z m1024 2 c20 -5 26 -14 28 -43 l3 -36 -65 -7 c-36 -4 -76
-5 -89 -1 -38 9 -54 -19 -72 -134 -45 -281 -119 -711 -146 -850 -16 -85 -30
-163 -30 -173 0 -15 -2 -15 -15 -3 -8 8 -14 21 -15 28 0 7 -4 4 -9 -7 -26 -61
9 223 105 830 19 121 37 243 41 270 10 77 28 113 61 121 15 3 33 7 38 9 18 6
139 3 165 -4z m568 -4 c6 -7 18 -40 26 -73 16 -63 112 -343 121 -352 3 -3 5
-12 5 -20 0 -26 112 -307 126 -315 8 -4 15 -18 15 -30 1 -12 5 -4 10 18 4 22
8 198 8 390 1 401 0 395 76 395 24 0 46 -4 49 -9 4 -5 7 -294 8 -641 l3 -632
-24 -19 c-25 -20 -76 -26 -86 -9 -4 6 -14 9 -23 8 -17 -3 -51 90 -102 277 -30
109 -112 317 -121 304 -6 -10 -47 108 -50 143 -1 7 -7 -30 -15 -82 -8 -58 -13
-194 -13 -350 -1 -301 -2 -306 -80 -296 -68 8 -67 8 -71 25 -1 9 -3 294 -4
634 -1 601 0 619 18 633 25 18 110 18 124 1z m1951 0 c6 -8 15 -37 21 -66 16
-86 115 -419 147 -493 31 -73 36 -62 129 250 43 144 86 276 96 292 16 28 22
30 77 30 69 0 97 -18 84 -54 -7 -19 -10 -633 -5 -936 1 -63 2 -133 2 -155 1
-22 3 -48 6 -59 4 -10 2 -16 -2 -13 -5 3 -9 -14 -9 -38 0 -24 3 -41 7 -39 4 3
5 -2 2 -10 -6 -15 -61 -42 -70 -34 -3 3 9 11 27 17 18 6 30 13 28 16 -6 5 -76
-19 -86 -30 -5 -4 -3 -5 3 -2 6 3 11 0 11 -8 0 -10 -5 -11 -17 -5 -45 24 -45
27 -46 373 -1 234 -5 332 -13 337 -7 3 -9 15 -5 26 5 16 4 16 -5 4 -6 -8 -8
-31 -6 -50 3 -23 2 -28 -3 -17 -7 17 -9 17 -18 -5 -6 -12 -24 -66 -39 -118
-16 -52 -33 -100 -39 -107 -6 -7 -32 -15 -58 -18 -42 -5 -49 -3 -64 20 -17 26
-40 24 -29 -4 4 -12 3 -13 -5 -5 -6 6 -22 43 -35 82 -32 94 -66 172 -75 172
-13 0 -20 -130 -20 -375 0 -232 -5 -275 -29 -261 -7 5 -10 2 -9 -6 5 -23 -103
-11 -114 12 -4 8 -7 291 -7 628 l-1 613 25 24 c20 20 34 25 78 25 34 0 59 -5
66 -13z m1221 0 c18 -9 26 -22 28 -47 4 -55 12 -81 22 -75 5 3 5 -6 0 -23 -4
-16 -4 -35 1 -43 4 -7 4 -16 -1 -19 -5 -3 -3 -18 6 -35 12 -23 12 -30 2 -37
-11 -6 -11 -8 0 -8 7 0 12 -6 10 -12 -5 -25 12 -69 24 -62 8 5 9 -6 5 -36 -4
-29 -1 -53 9 -72 8 -16 14 -54 14 -90 -1 -78 4 -134 13 -173 4 -16 9 -52 11
-80 2 -27 8 -70 12 -95 6 -35 9 -40 15 -25 5 13 8 -3 9 -45 1 -44 4 -58 9 -45
6 15 10 6 14 -35 4 -30 7 -59 8 -65 3 -28 -23 -160 -34 -167 -19 -12 -91 1
-104 19 -7 9 -13 27 -13 40 0 13 -4 23 -9 23 -4 0 -12 19 -17 43 l-9 42 -120
3 c-66 1 -130 0 -141 -3 -17 -4 -25 -19 -39 -76 -23 -92 -43 -114 -99 -105
-22 4 -47 8 -53 8 -23 2 -23 31 -3 163 71 481 161 1056 170 1087 9 30 17 40
43 47 48 14 188 13 217 -2z m572 -4 c24 -21 24 -73 1 -73 -16 0 -16 -2 -3 -11
12 -8 10 -10 -10 -8 -64 4 -59 28 -60 -298 -2 -372 -4 -404 -30 -422 -21 -14
-29 -38 -9 -25 7 4 10 1 7 -7 -3 -8 -10 -13 -15 -12 -7 1 -9 -47 -7 -132 3
-86 0 -135 -6 -135 -7 0 -10 193 -10 554 l0 555 22 15 c30 21 96 20 120 -1z
m448 2 c18 -21 15 -66 -4 -77 -9 -5 -16 -18 -16 -28 0 -10 -5 -22 -11 -26 -6
-3 -9 -17 -6 -30 5 -30 -1 -31 -13 -1 -7 18 -9 15 -9 -21 -1 -23 6 -54 15 -67
9 -13 13 -29 9 -35 -4 -6 -2 -16 3 -23 5 -7 13 -33 16 -59 6 -39 4 -48 -11
-57 -17 -9 -17 -10 0 -23 25 -19 12 -51 -18 -46 -17 4 -21 1 -18 -12 3 -12 11
-16 24 -13 13 4 19 0 19 -12 0 -12 -6 -16 -20 -12 -21 5 -30 -18 -9 -25 5 -2
11 -27 11 -55 1 -29 5 -50 10 -47 4 3 8 1 8 -5 0 -5 -6 -11 -12 -13 -7 -3 -13
-11 -14 -19 0 -8 -2 -23 -2 -34 -1 -11 -12 -25 -24 -30 -16 -7 -22 -17 -20
-34 2 -15 0 -21 -7 -17 -6 4 -11 14 -11 22 0 8 -4 13 -9 9 -6 -3 -10 140 -11
380 0 373 0 385 20 405 24 24 91 27 110 5z m-933 -337 c-3 -7 -5 -2 -5 12 0
14 2 19 5 13 2 -7 2 -19 0 -25z m660 -200 c-3 -8 -6 -5 -6 6 -1 11 2 17 5 13
3 -3 4 -12 1 -19z m27 -63 c2 -17 1 -23 -1 -15 -3 8 -9 19 -14 25 -5 5 -9 16
-9 24 0 26 19 -2 24 -34z m-2439 -70 l0 -30 -140 0 c-115 0 -141 -3 -147 -15
-4 -10 -7 -5 -7 14 -1 16 7 38 16 48 15 17 31 18 147 16 l131 -3 0 -30z
m-1396 -95 c0 -10 -3 -8 -9 5 -12 27 -12 43 0 25 5 -8 9 -22 9 -30z m3819 -58
c6 -7 12 -23 11 -35 0 -22 0 -22 -17 2 -17 25 -42 89 -41 106 0 6 8 -6 17 -25
9 -19 23 -41 30 -48z m116 -8 c3 -8 2 -12 -4 -9 -6 3 -10 10 -10 16 0 14 7 11
14 -7z m-4614 -83 c0 -35 -27 -51 -89 -51 -62 0 -81 11 -81 47 0 22 3 23 85
23 77 0 85 -2 85 -19z m1914 -83 c-1 -46 -6 -94 -13 -106 -15 -29 -62 -52
-103 -51 l-33 1 30 7 c85 21 105 51 105 159 0 46 3 81 8 79 4 -3 7 -43 6 -89z
m2403 15 c-2 -16 -4 -3 -4 27 0 30 2 43 4 28 2 -16 2 -40 0 -55z m393 -63 c0
-5 -4 -10 -10 -10 -5 0 -10 5 -10 10 0 6 5 10 10 10 6 0 10 -4 10 -10z m-5333
-102 c-2 -13 -4 -3 -4 22 0 25 2 35 4 23 2 -13 2 -33 0 -45z m5327 47 c-4 -8
-8 -15 -10 -15 -2 0 -4 7 -4 15 0 8 4 15 10 15 5 0 7 -7 4 -15z m-79 -35 c3
-5 1 -10 -4 -10 -6 0 -11 5 -11 10 0 6 2 10 4 10 3 0 8 -4 11 -10z m11 -57
c-10 -10 -19 5 -10 18 6 11 8 11 12 0 2 -7 1 -15 -2 -18z"/>
<path d="M2791 7996 c-16 -19 -7 -64 14 -73 8 -3 27 -2 41 1 22 6 25 11 22 44
-3 33 -6 37 -34 40 -19 2 -36 -3 -43 -12z"/>
<path d="M3185 7980 c-8 -35 15 -70 45 -70 27 0 52 35 48 67 -3 25 -7 28 -45
31 -39 3 -42 1 -48 -28z"/>
<path d="M4292 7958 c-28 -28 -8 -58 39 -58 17 0 20 6 17 33 -3 35 -33 48 -56
25z"/>
<path d="M4456 7925 c-6 -17 3 -25 26 -25 10 0 18 6 18 14 0 18 -37 28 -44 11z"/>
<path d="M4570 7916 c0 -9 7 -16 16 -16 17 0 14 22 -4 28 -7 2 -12 -3 -12 -12z"/>
<path d="M5658 8049 c-22 -13 -23 -55 -2 -63 28 -11 474 -7 495 4 10 6 19 19
19 30 0 11 -9 24 -19 30 -26 13 -470 13 -493 -1z"/>
<path d="M6356 8047 c-29 -21 -16 -50 27 -60 40 -10 132 -2 156 12 19 12 5 48
-22 55 -41 11 -143 6 -161 -7z"/>
<path d="M6808 8049 c-24 -13 -23 -46 1 -59 31 -16 602 -14 625 3 24 18 17 50
-14 58 -41 11 -593 10 -612 -2z"/>
<path d="M5362 8029 c5 -16 68 -24 68 -9 0 6 -6 10 -12 10 -7 0 -24 3 -37 7
-17 4 -22 2 -19 -8z"/>
<path d="M5380 7940 c0 -5 7 -10 15 -10 8 0 15 5 15 10 0 6 -7 10 -15 10 -8 0
-15 -4 -15 -10z"/>
<path d="M6310 7922 c0 -14 11 -21 26 -15 8 3 11 9 8 14 -7 11 -34 12 -34 1z"/>
<path d="M6167 7913 c-14 -13 -7 -23 16 -23 16 0 18 3 8 9 -11 7 -11 9 0 14
11 4 10 6 -2 6 -9 1 -19 -2 -22 -6z"/>
<path d="M6234 7900 c0 -11 6 -20 13 -20 7 0 13 9 13 20 0 11 -6 20 -13 20 -7
0 -13 -9 -13 -20z"/>
<path d="M3207 7584 c-15 -15 -7 -45 11 -42 9 2 17 12 17 22 0 20 -16 31 -28
20z"/>
<path d="M3225 7470 c-3 -5 1 -10 9 -10 9 0 16 5 16 10 0 6 -4 10 -9 10 -6 0
-13 -4 -16 -10z"/>
<path d="M3220 7380 c0 -11 5 -20 10 -20 6 0 10 9 10 20 0 11 -4 20 -10 20 -5
0 -10 -9 -10 -20z"/>
<path d="M3090 6604 c-12 -32 -13 -834 -1 -853 8 -12 56 -19 66 -9 3 2 5 199
5 438 1 343 -2 435 -12 442 -25 15 -48 8 -58 -18z"/>
<path d="M3222 6178 c5 -15 28 -23 28 -10 0 5 -7 13 -16 16 -10 4 -14 1 -12
-6z"/>
<path d="M3210 6100 c0 -5 5 -10 10 -10 6 0 10 5 10 10 0 6 -4 10 -10 10 -5 0
-10 -4 -10 -10z"/>
<path d="M3210 6015 c0 -9 5 -15 11 -13 6 2 11 8 11 13 0 5 -5 11 -11 13 -6 2
-11 -4 -11 -13z"/>
<path d="M3030 5861 c0 -6 5 -13 10 -16 6 -3 10 1 10 9 0 9 -4 16 -10 16 -5 0
-10 -4 -10 -9z"/>
<path d="M3071 5676 c-16 -19 -6 -36 20 -36 15 0 20 6 17 22 -4 27 -21 33 -37
14z"/>
<path d="M3070 5575 c0 -8 7 -15 15 -15 8 0 15 7 15 15 0 8 -7 15 -15 15 -8 0
-15 -7 -15 -15z"/>
<path d="M3047 5154 c-9 -9 -10 -576 -1 -598 10 -25 53 -20 63 7 5 13 6 151 2
308 l-6 284 -25 3 c-14 2 -29 0 -33 -4z"/>
<path d="M3165 4980 c-3 -5 1 -10 9 -10 9 0 16 5 16 10 0 6 -4 10 -9 10 -6 0
-13 -4 -16 -10z"/>
<path d="M3215 4130 c-3 -5 -1 -10 4 -10 6 0 11 5 11 10 0 6 -2 10 -4 10 -3 0
-8 -4 -11 -10z"/>
<path d="M3030 4091 c0 -5 5 -13 10 -16 6 -3 10 -2 10 4 0 5 -4 13 -10 16 -5
3 -10 2 -10 -4z"/>
<path d="M3190 4051 c0 -6 5 -13 10 -16 6 -3 10 -1 10 5 0 6 5 8 10 5 6 -3 10
-1 10 4 0 6 -9 11 -20 11 -11 0 -20 -4 -20 -9z"/>
<path d="M3037 3994 c6 -15 23 -19 23 -5 0 5 -7 11 -14 14 -10 4 -13 1 -9 -9z"/>
<path d="M3220 3965 c-8 -9 -8 -15 -2 -15 12 0 26 19 19 26 -2 2 -10 -2 -17
-11z"/>
<path d="M3222 3921 c-11 -6 -9 -9 5 -13 12 -3 20 0 20 8 0 16 -6 17 -25 5z"/>
<path d="M3732 7175 c-29 -37 -28 -71 2 -90 29 -19 58 -9 77 27 10 18 8 24 -7
35 -10 7 -22 13 -26 13 -5 0 -12 10 -17 21 -7 21 -8 21 -29 -6z"/>
<path d="M4816 7428 c-10 -5 -16 -22 -16 -42 0 -26 6 -35 26 -45 23 -10 30 -9
50 10 26 25 31 51 12 66 -21 16 -54 21 -72 11z"/>
<path d="M4496 7028 c-9 -12 -16 -28 -16 -35 0 -18 37 -53 55 -53 19 0 55 36
55 55 0 21 -36 55 -59 55 -11 0 -27 -10 -35 -22z"/>
<path d="M4323 6753 c-18 -7 -16 -58 2 -73 23 -19 65 2 65 33 0 38 -29 56 -67
40z"/>
<path d="M3952 6488 c-18 -18 -14 -56 7 -68 11 -5 33 -10 50 -10 l31 0 0 -116
c0 -63 4 -123 10 -133 14 -28 40 -34 61 -15 17 15 19 33 19 134 l0 117 36 6
c41 7 74 32 74 57 0 34 -21 40 -150 40 -85 0 -130 -4 -138 -12z"/>
<path d="M4534 6436 c-14 -58 32 -89 69 -48 21 23 21 36 1 56 -24 25 -63 20
-70 -8z"/>
<path d="M3705 6360 c-17 -52 31 -88 68 -51 18 17 19 24 9 46 -15 32 -67 36
-77 5z"/>
<path d="M4684 6262 c-37 -24 -16 -82 30 -82 47 0 62 48 24 74 -25 18 -37 19
-54 8z"/>
<path d="M4236 6147 c-37 -27 2 -96 41 -71 35 22 40 44 14 65 -28 23 -32 23
-55 6z"/>
<path d="M3646 5939 c-13 -20 -14 -26 -2 -44 19 -28 41 -30 66 -5 19 19 20 24
7 43 -20 31 -52 33 -71 6z"/>
<path d="M4456 5879 c-16 -23 -12 -47 12 -66 25 -20 50 -15 68 12 15 23 15 27
0 50 -20 31 -59 33 -80 4z"/>
<path d="M3786 5788 c-15 -127 -16 -123 29 -126 34 -2 48 3 88 34 27 21 47 45
47 56 0 33 -63 86 -112 93 l-45 7 -7 -64z"/>
<path d="M3704 5205 c-10 -25 5 -63 27 -70 31 -10 64 25 55 59 -5 22 -12 26
-42 26 -22 0 -37 -6 -40 -15z"/>
<path d="M4430 5051 c-14 -10 -38 -23 -55 -28 -45 -14 -55 -54 -27 -103 12
-22 22 -52 22 -68 0 -41 20 -54 76 -50 45 3 48 5 56 36 5 18 21 47 36 63 39
44 45 67 22 74 -11 3 -37 26 -58 51 -22 24 -41 44 -43 44 -2 0 -15 -9 -29 -19z"/>
<path d="M3882 4888 c-15 -15 -16 -54 -2 -63 6 -4 8 -10 5 -15 -9 -14 58 8 67
22 4 7 7 24 6 38 -2 20 -9 26 -33 28 -17 2 -36 -3 -43 -10z"/>
<path d="M4026 4629 c-115 -27 -178 -116 -174 -248 1 -40 5 -64 9 -54 5 16 7
16 13 -4 4 -12 24 -37 45 -55 20 -19 35 -41 33 -49 -3 -12 -2 -12 6 0 8 11 14
12 24 4 8 -7 42 -10 83 -9 86 4 99 7 124 30 18 16 23 17 37 5 16 -13 16 -12 6
7 -9 18 -7 25 18 49 17 16 30 36 29 44 0 10 -4 8 -9 -6 -16 -41 -20 -24 -4 20
24 67 0 164 -50 208 -14 12 -23 26 -20 30 3 5 -3 6 -12 2 -13 -5 -15 -3 -9 8
4 8 5 11 1 7 -4 -3 -26 0 -48 8 -45 16 -47 16 -102 3z m105 -130 c76 -53 26
-179 -71 -179 -31 0 -44 6 -68 34 -27 30 -30 40 -25 78 7 51 25 75 67 87 36
11 61 5 97 -20z"/>
<path d="M3606 4548 c-22 -31 -20 -51 8 -77 38 -36 90 -15 98 39 7 53 -75 83
-106 38z"/>
<path d="M3855 4509 c-4 -6 -5 -12 -2 -15 2 -3 7 2 10 11 7 17 1 20 -8 4z"/>
<path d="M3540 4356 c0 -9 5 -16 10 -16 6 0 10 4 10 9 0 6 -4 13 -10 16 -5 3
-10 -1 -10 -9z"/>
<path d="M4396 4305 c-20 -21 -21 -74 -1 -81 8 -4 12 -10 9 -15 -6 -10 43 9
64 24 13 10 16 45 4 64 -13 21 -58 26 -76 8z"/>
<path d="M4811 4304 c0 -11 3 -14 6 -6 3 7 2 16 -1 19 -3 4 -6 -2 -5 -13z"/>
<path d="M4350 4215 c0 -8 7 -15 16 -15 14 0 14 3 4 15 -7 8 -14 15 -16 15 -2
0 -4 -7 -4 -15z"/>
<path d="M4138 4203 c7 -3 16 -2 19 1 4 3 -2 6 -13 5 -11 0 -14 -3 -6 -6z"/>
<path d="M3999 4198 c-10 -34 -6 -38 36 -38 24 0 47 5 51 12 4 7 3 8 -4 4 -7
-4 -29 -4 -49 0 -31 6 -34 8 -18 15 17 6 17 8 3 8 -10 1 -18 0 -19 -1z"/>
<path d="M4170 4175 c0 -8 5 -15 10 -15 6 0 10 7 10 15 0 8 -4 15 -10 15 -5 0
-10 -7 -10 -15z"/>
<path d="M4330 4175 c0 -8 5 -15 10 -15 6 0 10 7 10 15 0 8 -4 15 -10 15 -5 0
-10 -7 -10 -15z"/>
<path d="M4210 4170 c-13 -8 -12 -10 3 -10 9 0 17 5 17 10 0 12 -1 12 -20 0z"/>
<path d="M4747 4167 c-3 -8 1 -14 8 -14 7 0 11 6 8 14 -3 7 -6 13 -8 13 -2 0
-5 -6 -8 -13z"/>
<path d="M4918 3953 c7 -3 16 -2 19 1 4 3 -2 6 -13 5 -11 0 -14 -3 -6 -6z"/>
<path d="M5130 3949 c0 -5 5 -7 10 -4 6 3 10 8 10 11 0 2 -4 4 -10 4 -5 0 -10
-5 -10 -11z"/>
<path d="M4898 3933 c7 -3 16 -2 19 1 4 3 -2 6 -13 5 -11 0 -14 -3 -6 -6z"/>
<path d="M5088 3933 c7 -3 16 -2 19 1 4 3 -2 6 -13 5 -11 0 -14 -3 -6 -6z"/>
<path d="M5088 5113 c-27 -7 -34 -50 -12 -74 29 -32 58 -21 62 23 3 39 -16 58
-50 51z"/>
<path d="M5250 5105 c-17 -20 -16 -65 1 -76 8 -5 24 -9 36 -9 25 0 37 29 31
71 -4 29 -48 38 -68 14z"/>
<path d="M2608 2253 c6 -2 18 -2 25 0 6 3 1 5 -13 5 -14 0 -19 -2 -12 -5z"/>
<path d="M5940 2788 c0 -3 6 -21 14 -39 7 -19 11 -41 9 -49 -4 -13 -3 -13 6
-1 7 11 5 26 -5 50 -14 34 -24 50 -24 39z"/>
<path d="M6950 3136 c0 -1 -14 -88 -30 -192 -17 -104 -33 -208 -37 -231 l-6
-43 92 0 91 0 0 33 c0 33 -35 319 -46 372 -11 59 -15 65 -40 65 -13 0 -24 -2
-24 -4z"/>
<path d="M8042 3456 c7 -8 15 -12 17 -11 5 6 -10 25 -20 25 -5 0 -4 -6 3 -14z"/>
<path d="M8033 3255 c0 -22 2 -30 4 -17 2 12 2 30 0 40 -3 9 -5 -1 -4 -23z"/>
<path d="M8032 2940 c0 -14 2 -19 5 -12 2 6 2 18 0 25 -3 6 -5 1 -5 -13z"/>
<path d="M8031 2893 c-1 -7 -10 -13 -21 -13 -22 0 -27 -15 -9 -26 15 -9 43 20
36 38 -4 9 -6 10 -6 1z"/>
<path d="M2196 7868 c-27 -39 -14 -78 32 -92 54 -17 97 58 56 98 -23 24 -70
20 -88 -6z"/>
<path d="M7927 7732 c-34 -37 -15 -82 33 -82 49 0 68 51 32 83 -24 22 -45 21
-65 -1z"/>
<path d="M2312 7537 c-21 -23 -22 -30 -22 -296 0 -268 4 -303 34 -323 6 -4 77
-8 158 -8 l147 0 16 30 c20 39 19 47 -10 75 -22 23 -32 25 -115 25 l-91 0 3
68 3 67 90 3 c97 4 125 17 125 57 0 48 -22 60 -119 63 -102 4 -92 -6 -94 95
l-2 42 90 3 c100 3 125 16 125 63 0 50 -28 59 -180 59 -130 0 -138 -1 -158
-23z"/>
<path d="M7796 7507 c-15 -15 -32 -61 -55 -147 -17 -69 -48 -179 -67 -245 -40
-141 -42 -167 -12 -195 41 -38 95 -16 119 50 18 49 33 57 111 59 46 1 48 0 69
-41 31 -62 48 -78 84 -78 45 0 68 29 62 77 -2 21 -35 124 -71 228 -114 323
-109 315 -181 315 -24 0 -43 -7 -59 -23z m93 -277 c29 -77 28 -80 -23 -80
l-44 0 15 53 c21 76 25 88 28 85 2 -2 13 -28 24 -58z"/>
<path d="M6999 7416 c-10 -20 -9 -30 5 -51 20 -30 46 -32 71 -5 28 31 10 74
-33 78 -26 3 -34 -1 -43 -22z"/>
<path d="M6382 7238 c-19 -19 -14 -55 10 -72 19 -13 25 -14 43 -2 26 17 31 49
10 70 -19 19 -46 21 -63 4z"/>
<path d="M6392 6958 c-18 -18 -14 -53 7 -72 23 -21 51 -15 69 15 27 43 -40 93
-76 57z"/>
<path d="M2055 6885 c-14 -13 -25 -33 -25 -45 0 -26 43 -70 68 -70 33 0 72 38
72 70 0 32 -39 70 -72 70 -10 0 -30 -11 -43 -25z"/>
<path d="M5793 6873 c-16 -6 -17 -55 -1 -71 7 -7 21 -12 33 -12 12 0 26 5 33
12 7 7 12 21 12 33 0 37 -36 55 -77 38z"/>
<path d="M8222 6819 c-25 -10 -47 -50 -39 -73 3 -8 17 -22 31 -31 21 -14 29
-15 52 -3 70 34 29 134 -44 107z"/>
<path d="M7660 6750 c-25 -25 -26 -52 -2 -73 37 -34 92 -11 92 38 0 24 -33 55
-57 55 -7 0 -22 -9 -33 -20z"/>
<path d="M2578 6709 c-22 -12 -23 -52 -3 -69 21 -17 62 -4 71 22 5 16 1 27
-16 40 -25 21 -29 21 -52 7z"/>
<path d="M6688 6669 c-21 -12 -24 -49 -6 -67 18 -18 56 -14 68 7 14 27 13 37
-6 55 -18 18 -32 20 -56 5z"/>
<path d="M6226 6635 c-95 -34 -150 -138 -126 -242 32 -144 202 -207 311 -116
59 50 77 139 40 199 -17 28 -25 32 -84 38 -83 9 -107 -2 -107 -48 0 -43 19
-58 67 -54 32 2 38 0 41 -17 5 -32 -20 -56 -66 -62 -38 -5 -45 -2 -77 30 -29
29 -35 42 -35 77 0 35 6 48 35 77 34 34 36 35 94 28 56 -6 60 -5 76 18 42 64
-64 110 -169 72z"/>
<path d="M2303 6580 c-96 -20 -164 -77 -210 -175 -23 -51 -28 -73 -28 -145 0
-71 5 -94 27 -141 30 -66 89 -128 150 -161 64 -33 185 -33 252 2 81 42 91 62
91 195 0 149 -7 157 -120 156 -84 -1 -99 -8 -110 -49 -8 -31 22 -62 60 -62 26
0 37 -27 28 -71 -4 -21 -14 -31 -40 -40 -44 -14 -74 -6 -117 32 -76 67 -78
212 -4 275 33 27 31 27 155 8 36 -5 45 -3 67 20 81 80 -54 185 -201 156z"/>
<path d="M5710 6550 c-12 -7 -16 -39 -18 -159 -3 -140 -2 -151 17 -170 29 -29
157 -31 191 -3 47 38 0 85 -73 75 l-37 -5 0 117 c0 64 -5 125 -10 136 -11 20
-45 25 -70 9z"/>
<path d="M7642 6532 c-22 -22 -26 -55 -44 -356 l-12 -209 28 -23 c32 -28 76
-31 105 -6 19 15 21 29 23 137 l3 120 32 -52 c71 -115 114 -110 200 23 10 15
11 2 6 -67 -7 -105 6 -152 46 -169 34 -14 73 -5 97 21 15 17 16 37 10 201 -14
385 -17 398 -94 398 -56 0 -75 -19 -117 -119 -21 -50 -41 -91 -44 -91 -4 0
-25 37 -46 81 -22 45 -53 92 -68 105 -36 30 -98 33 -125 6z"/>
<path d="M7256 6475 c-13 -19 -16 -51 -16 -154 0 -125 -1 -131 -26 -160 -31
-37 -57 -39 -89 -6 -24 23 -25 29 -25 168 0 98 -4 147 -12 155 -7 7 -28 12
-48 12 -20 0 -41 -5 -48 -12 -18 -18 -16 -298 2 -341 69 -161 287 -159 360 3
17 39 19 62 17 185 -3 157 -10 175 -66 175 -24 0 -37 -7 -49 -25z"/>
<path d="M6720 6301 c-14 -27 -13 -37 6 -55 23 -23 51 -19 70 9 16 24 16 27
-1 45 -23 25 -61 26 -75 1z"/>
<path d="M8296 6219 c-27 -40 13 -81 52 -53 26 18 28 37 6 58 -21 22 -40 20
-58 -5z"/>
<path d="M5966 5954 c-23 -23 -19 -51 9 -70 24 -16 27 -16 45 1 11 10 20 28
20 40 0 42 -44 60 -74 29z"/>
<path d="M6378 5935 c-10 -22 -9 -29 10 -47 18 -19 25 -20 47 -10 22 10 26 18
23 45 -3 28 -7 32 -35 35 -27 3 -35 -1 -45 -23z"/>
<path d="M6710 5819 c-9 -16 -8 -26 5 -45 8 -13 21 -24 29 -24 17 0 46 32 46
51 0 40 -62 53 -80 18z"/>
<path d="M8159 5796 c-48 -23 -28 -106 26 -106 44 0 70 57 43 92 -19 23 -42
28 -69 14z"/>
<path d="M2506 5784 c-21 -21 -20 -47 2 -67 23 -21 46 -22 66 -1 31 30 9 84
-34 84 -10 0 -26 -7 -34 -16z"/>
<path d="M7026 5788 c-3 -7 -7 -26 -11 -41 -4 -22 -17 -33 -55 -50 -42 -19
-50 -26 -50 -49 0 -25 5 -28 40 -34 35 -6 41 -11 57 -50 14 -33 23 -44 40 -44
17 0 24 7 28 28 10 46 20 56 64 65 40 8 42 10 39 40 -2 25 -11 35 -43 51 -26
14 -46 34 -58 59 -17 36 -44 49 -51 25z"/>
<path d="M2032 5758 c-18 -18 -15 -53 6 -71 24 -22 45 -21 65 1 34 37 15 82
-33 82 -14 0 -31 -5 -38 -12z"/>
<path d="M7676 5744 c-23 -23 -20 -51 8 -69 46 -31 97 25 60 66 -21 23 -47 24
-68 3z"/>
<path d="M6138 5599 c-25 -14 -24 -65 2 -79 46 -25 91 39 50 72 -25 21 -29 21
-52 7z"/>
<path d="M2069 5501 c-24 -19 -24 -22 -27 -240 l-3 -221 25 -25 c29 -29 44
-31 72 -11 17 13 20 31 24 157 l5 142 78 -125 c102 -166 112 -178 147 -178 53
0 55 12 52 264 -2 202 -4 233 -19 244 -24 18 -50 15 -73 -8 -18 -18 -20 -33
-20 -141 l0 -121 -80 121 c-113 171 -130 184 -181 142z"/>
<path d="M6500 5500 c-23 -23 -24 -33 -10 -61 20 -37 90 -11 90 33 0 36 -54
54 -80 28z"/>
<path d="M7830 5508 c-13 -5 -28 -14 -32 -21 -4 -7 -8 -114 -8 -239 l0 -228
25 -16 c18 -12 31 -14 52 -7 l28 10 5 149 5 149 24 -40 c89 -147 165 -254 187
-264 26 -11 60 -1 76 23 4 6 8 113 8 237 0 170 -3 229 -12 236 -24 18 -57 21
-77 6 -19 -13 -21 -24 -21 -144 0 -71 -4 -129 -8 -129 -5 0 -49 62 -99 138
-52 80 -98 141 -109 144 -11 3 -31 1 -44 -4z"/>
<path d="M7303 5479 c-28 -10 -31 -49 -5 -72 24 -22 35 -21 56 2 33 37 -5 88
-51 70z"/>
<path d="M5844 5413 c-9 -35 7 -58 42 -58 22 0 31 6 38 27 12 35 -6 58 -45 58
-23 0 -30 -6 -35 -27z"/>
<path d="M6156 5225 c-9 -9 -16 -24 -16 -34 0 -43 58 -56 84 -19 13 19 14 25
2 43 -17 26 -49 31 -70 10z"/>
<path d="M6750 5178 c-107 -29 -147 -174 -69 -254 18 -18 48 -39 67 -45 68
-23 162 9 162 54 0 45 -45 61 -84 32 -28 -21 -49 -19 -75 9 -32 33 -26 92 11
119 27 20 28 20 61 2 27 -14 38 -15 55 -6 25 13 29 43 7 64 -8 8 -12 16 -10
18 2 2 -8 5 -21 5 -13 1 -34 4 -47 7 -12 2 -38 0 -57 -5z"/>
<path d="M7329 5161 c-52 -10 -122 -55 -158 -100 -52 -66 -73 -127 -75 -216
-1 -73 2 -87 33 -148 19 -38 47 -77 63 -88 15 -11 26 -25 23 -30 -4 -5 2 -6
11 -2 10 4 15 2 11 -3 -3 -5 2 -10 11 -11 9 -1 42 -11 72 -22 62 -23 98 -26
152 -11 76 21 109 82 70 130 -18 22 -27 25 -81 22 -71 -3 -131 18 -131 45 0
10 -5 25 -11 33 -8 11 -9 8 -4 -15 l7 -30 -19 25 c-36 48 -46 78 -41 123 8 71
71 135 123 124 14 -2 26 0 28 6 2 7 14 6 37 -1 49 -18 74 -15 97 11 29 32 33
49 18 84 -9 22 -28 38 -68 57 -56 26 -98 30 -168 17z"/>
<path d="M6257 4983 c-13 -12 -7 -60 8 -73 38 -31 96 27 65 65 -13 15 -61 21
-73 8z"/>
<path d="M8315 4955 c-14 -13 -25 -33 -25 -45 0 -41 62 -75 96 -52 13 9 34 46
34 62 0 17 -47 60 -65 60 -9 0 -27 -11 -40 -25z"/>
<path d="M2552 4928 c-18 -18 -14 -63 8 -83 42 -38 106 17 82 70 -9 19 -19 25
-45 25 -18 0 -38 -5 -45 -12z"/>
<path d="M5860 4901 c-22 -43 1 -81 49 -81 35 0 55 37 41 75 -8 20 -16 25 -44
25 -25 0 -38 -6 -46 -19z"/>
<path d="M7745 4854 c-19 -20 -16 -63 6 -77 50 -31 105 38 59 75 -27 22 -44
23 -65 2z"/>
<path d="M1881 4811 c-25 -25 -26 -30 -5 -59 20 -30 59 -29 79 2 13 19 14 29
5 45 -6 12 -15 21 -20 21 -4 0 -15 3 -23 6 -9 3 -25 -4 -36 -15z"/>
<path d="M2229 4602 c-65 -34 -99 -85 -99 -150 0 -87 49 -141 157 -173 86 -25
105 -89 39 -130 -42 -26 -57 -24 -101 11 -43 34 -61 37 -93 14 -48 -33 -15
-110 62 -145 81 -37 177 -17 245 52 62 62 77 138 42 214 -23 52 -36 62 -122
94 -85 31 -109 57 -82 90 21 26 42 28 105 10 43 -12 49 -11 67 5 30 27 35 54
16 82 -39 60 -149 72 -236 26z"/>
<path d="M6071 4602 c-5 -10 -24 -54 -41 -98 -17 -43 -38 -86 -46 -95 -8 -9
-11 -18 -8 -22 3 -3 -8 -42 -25 -86 -33 -86 -38 -129 -18 -150 10 -11 9 -12
-2 -6 -9 5 -12 4 -7 -3 4 -7 27 -12 51 -12 43 0 45 1 72 53 l28 52 62 1 62 2
15 -38 c8 -21 20 -41 26 -45 6 -3 8 -11 5 -16 -5 -8 2 -11 25 -11 3 -1 19 2
35 5 l30 6 -30 -15 -30 -15 33 5 c30 5 62 26 62 40 0 3 -8 3 -17 0 -17 -5 -17
-5 0 6 9 6 17 16 17 23 0 7 -4 6 -11 -3 -8 -12 -9 -10 -8 10 2 14 -4 41 -13
60 -8 20 -39 103 -68 185 -29 83 -56 158 -61 168 -14 25 -124 25 -138 -1z m89
-234 c0 -13 -8 -18 -30 -18 -35 0 -35 -2 -13 52 l17 42 12 -29 c7 -17 13 -38
14 -47z"/>
<path d="M7680 4602 c-27 -21 -34 -86 -46 -393 l-7 -185 28 -22 c15 -12 36
-22 47 -22 22 0 60 18 70 34 4 6 8 64 8 129 0 76 4 116 10 112 5 -3 22 -31 37
-61 16 -33 38 -61 53 -69 52 -27 106 6 135 81 9 24 21 44 26 44 5 0 9 -48 9
-108 0 -120 10 -146 59 -157 41 -9 88 17 95 52 6 27 -6 314 -20 472 -8 89 -25
111 -85 111 -57 0 -87 -34 -134 -152 -21 -54 -41 -98 -45 -98 -3 0 -12 17 -19
38 -26 72 -81 177 -102 195 -28 22 -90 22 -119 -1z"/>
<path d="M1894 4486 c-16 -42 24 -83 52 -54 25 25 11 68 -22 68 -13 0 -27 -6
-30 -14z"/>
<path d="M6962 4468 c-15 -15 -16 -45 -1 -53 6 -4 8 -12 6 -19 -3 -7 9 -11 33
-11 21 0 38 2 37 5 -1 3 4 15 11 28 19 33 0 62 -41 62 -18 0 -38 -5 -45 -12z"/>
<path d="M7215 4439 c-4 -6 -5 -12 -2 -15 2 -3 7 2 10 11 7 17 1 20 -8 4z"/>
<path d="M7125 4389 c-4 -5 -4 -13 -1 -16 3 -4 6 0 6 8 0 11 2 11 10 -1 6 -9
10 -10 10 -3 0 17 -17 25 -25 12z"/>
<path d="M7174 4372 c4 -7 2 -12 -3 -12 -6 0 -11 -4 -11 -10 0 -15 17 -12 23
5 4 8 1 17 -5 21 -7 4 -8 3 -4 -4z"/>
<path d="M6970 4366 c0 -2 14 -6 30 -8 17 -3 30 -1 30 4 0 4 -13 8 -30 8 -16
0 -30 -2 -30 -4z"/>
<path d="M7133 4343 c-1 -10 -5 -34 -9 -53 -6 -34 -5 -34 10 -13 9 12 13 29 9
39 -5 12 -3 15 6 9 10 -6 11 -3 2 14 -14 26 -16 26 -18 4z"/>
<path d="M6880 4330 c0 -5 5 -10 10 -10 6 0 10 5 10 10 0 6 -4 10 -10 10 -5 0
-10 -4 -10 -10z"/>
<path d="M7069 4280 c-8 -27 -4 -48 7 -43 8 3 14 8 14 12 0 9 -19 37 -21 31z"/>
<path d="M6487 4249 c7 -7 15 -10 18 -7 3 3 -2 9 -12 12 -14 6 -15 5 -6 -5z"/>
<path d="M6350 4246 c0 -2 7 -9 15 -16 9 -7 15 -8 15 -2 0 5 -7 12 -15 16 -8
3 -15 4 -15 2z"/>
<path d="M6394 4227 c3 -10 1 -28 -5 -39 -8 -15 -8 -23 2 -32 9 -8 10 -8 5 1
-4 7 -2 22 4 33 8 15 8 25 0 38 -11 16 -11 16 -6 -1z"/>
<path d="M8320 4170 c-11 -11 -20 -28 -20 -38 0 -24 31 -52 57 -52 23 0 53 30
53 53 0 21 -35 57 -55 57 -8 0 -24 -9 -35 -20z"/>
<path d="M7366 4158 c-34 -48 -4 -108 53 -108 35 0 61 31 61 72 0 53 -84 80
-114 36z"/>
<path d="M6618 4163 c7 -3 16 -2 19 1 4 3 -2 6 -13 5 -11 0 -14 -3 -6 -6z"/>
<path d="M6960 4099 c0 -13 4 -18 12 -13 8 5 9 2 4 -11 -5 -15 -4 -16 8 -6 13
11 13 15 -2 32 -21 24 -22 24 -22 -2z"/>
<path d="M5954 4095 c16 -10 32 -13 37 -8 5 5 1 9 -9 9 -9 1 -26 4 -37 8 -11
4 -7 0 9 -9z"/>
<path d="M6018 4083 c7 -3 16 -2 19 1 4 3 -2 6 -13 5 -11 0 -14 -3 -6 -6z"/>
<path d="M5576 4035 c-9 -26 -7 -32 5 -12 6 10 9 21 6 23 -2 3 -7 -2 -11 -11z"/>
<path d="M5595 4022 c-12 -12 -4 -20 15 -15 11 3 20 9 20 12 0 9 -27 10 -35 3z"/>
<path d="M1920 4000 c-9 -16 -8 -25 1 -36 26 -32 84 0 62 34 -16 26 -50 27
-63 2z"/>
<path d="M5538 4003 c7 -3 16 -2 19 1 4 3 -2 6 -13 5 -11 0 -14 -3 -6 -6z"/>
<path d="M2520 3966 c-31 -38 9 -89 54 -68 45 20 30 82 -20 82 -12 0 -27 -7
-34 -14z"/>
<path d="M7198 3934 c-14 -31 -1 -57 31 -62 45 -7 67 40 35 72 -23 24 -53 19
-66 -10z"/>
<path d="M8570 3660 c-27 -51 36 -95 72 -50 16 20 17 25 5 44 -20 29 -63 33
-77 6z"/>
<path d="M1702 3514 c-40 -28 -18 -104 30 -104 18 0 58 41 58 61 0 41 -53 68
-88 43z"/>
<path d="M8500 2335 c0 -13 9 -16 48 -13 26 2 47 8 47 13 0 6 -21 11 -47 13
-39 3 -48 0 -48 -13z"/>
<path d="M8416 2265 c4 -8 8 -15 10 -15 2 0 4 7 4 15 0 8 -4 15 -10 15 -5 0
-7 -7 -4 -15z"/>
<path d="M8480 2271 c0 -5 7 -11 15 -15 9 -3 15 0 15 9 0 8 -7 15 -15 15 -8 0
-15 -4 -15 -9z"/>
<path d="M8578 2253 c7 -3 16 -2 19 1 4 3 -2 6 -13 5 -11 0 -14 -3 -6 -6z"/>
<path d="M8458 2185 c2 -14 8 -25 13 -25 14 0 11 26 -5 39 -11 9 -12 6 -8 -14z"/>
<path d="M4545 2010 c-3 -5 3 -10 15 -10 12 0 18 5 15 10 -3 6 -10 10 -15 10
-5 0 -12 -4 -15 -10z"/>
<path d="M4700 2009 c0 -5 5 -7 10 -4 6 3 10 8 10 11 0 2 -4 4 -10 4 -5 0 -10
-5 -10 -11z"/>
<path d="M5480 2006 c0 -9 7 -16 16 -16 17 0 14 22 -4 28 -7 2 -12 -3 -12 -12z"/>
<path d="M6033 2012 c-10 -6 -10 -12 1 -28 12 -15 18 -17 33 -8 10 6 18 17 18
25 0 16 -34 23 -52 11z"/>
<path d="M3305 1990 c3 -5 8 -10 11 -10 2 0 4 5 4 10 0 6 -5 10 -11 10 -5 0
-7 -4 -4 -10z"/>
<path d="M4195 1970 c-3 -5 1 -10 10 -10 9 0 13 5 10 10 -3 6 -8 10 -10 10 -2
0 -7 -4 -10 -10z"/>
<path d="M6970 1970 c0 -5 5 -10 11 -10 5 0 7 5 4 10 -3 6 -8 10 -11 10 -2 0
-4 -4 -4 -10z"/>
<path d="M5390 1949 c0 -5 5 -7 10 -4 6 3 10 8 10 11 0 2 -4 4 -10 4 -5 0 -10
-5 -10 -11z"/>
<path d="M4670 1929 c0 -5 5 -7 10 -4 6 3 10 8 10 11 0 2 -4 4 -10 4 -5 0 -10
-5 -10 -11z"/>
<path d="M3114 1675 c-15 -23 -15 -27 0 -50 20 -30 49 -32 76 -5 25 25 25 42
2 63 -27 24 -59 21 -78 -8z"/>
<path d="M7188 1635 c-10 -22 -9 -29 10 -48 17 -17 26 -19 39 -11 46 29 40 76
-10 82 -21 3 -30 -3 -39 -23z"/>
<path d="M3856 1634 c-22 -21 -20 -61 3 -74 29 -15 56 -12 74 8 22 24 21 45
-1 65 -23 21 -56 22 -76 1z"/>
<path d="M4636 1604 c-22 -21 -20 -47 4 -69 42 -38 100 25 59 66 -23 23 -42
24 -63 3z"/>
<path d="M5346 1574 c-7 -19 10 -44 29 -44 19 0 36 25 29 44 -3 9 -16 16 -29
16 -13 0 -26 -7 -29 -16z"/>
<path d="M5857 1572 c-24 -27 -21 -59 8 -78 33 -21 72 -6 81 31 13 52 -53 86
-89 47z"/>
</g>
</svg>
